<svg width="20" height="20" viewBox="0 0 20 20" fill="none" xmlns="http://www.w3.org/2000/svg">
<path fill-rule="evenodd" clip-rule="evenodd" d="M0.414326 9.99507C0.409939 9.73355 0.507523 9.47064 0.707078 9.27108L7.07104 2.90712C7.46156 2.5166 8.09473 2.5166 8.48525 2.90712C8.87578 3.29764 8.87578 3.93081 8.48525 4.32133L3.80885 8.99774H18C18.5523 8.99774 19 9.44545 19 9.99774C19 10.55 18.5523 10.9977 18 10.9977H3.81418L8.48525 15.6688C8.87578 16.0593 8.87578 16.6925 8.48525 17.083C8.09473 17.4735 7.46156 17.4735 7.07104 17.083L0.707078 10.7191C0.507521 10.5195 0.409937 10.2566 0.414326 9.99507Z" fill="#333333"/>
</svg>
