<svg width="20" height="20" viewBox="0 0 20 20" fill="none" xmlns="http://www.w3.org/2000/svg">
<g clip-path="url(#clip0_234_82)">
<path d="M2.06899 17.9275C7.36747 17.9275 12.6314 17.9275 17.9293 17.9275C17.9293 17.8418 17.9293 17.7595 17.9293 17.6772C17.9293 15.1351 17.9288 12.593 17.9299 10.0509C17.9305 9.47139 18.3214 9.02364 18.8625 8.97184C19.4681 8.91371 19.9897 9.37988 19.9954 9.99972C20.0029 10.8037 19.9977 11.6083 19.9977 12.4123C19.9977 14.3225 19.9983 16.2326 19.9977 18.1428C19.9971 19.2794 19.2776 19.9994 18.1423 20C12.7132 20.0006 7.284 20.0006 1.85484 20C0.719612 20 0.00059752 19.2794 0.00059752 18.1422C2.18477e-05 15.4419 -0.0011295 12.7421 0.00174886 10.0423C0.00232454 9.30276 0.664347 8.80264 1.34709 9.01615C1.78806 9.15428 2.06784 9.55081 2.06841 10.0521C2.07014 11.6106 2.06899 13.1685 2.06899 14.7271C2.06899 15.7106 2.06899 16.6948 2.06899 17.6783C2.06899 17.7549 2.06899 17.8326 2.06899 17.9275Z" fill="#333333"/>
<path d="M8.96493 3.54982C8.878 3.63097 8.82101 3.68104 8.76747 3.73457C8.12214 4.37858 7.4843 5.03122 6.82918 5.66487C6.25409 6.2214 5.33762 5.99234 5.11138 5.24474C4.99106 4.84705 5.0872 4.49195 5.38022 4.19614C5.80967 3.76277 6.24257 3.33228 6.67433 2.90063C7.50675 2.06785 8.33917 1.23449 9.17274 0.402864C9.711 -0.134099 10.289 -0.134099 10.8272 0.403439C12.0718 1.64657 13.3136 2.89315 14.5605 4.13398C14.8777 4.44994 15.017 4.81194 14.8846 5.24704C14.6572 5.99464 13.7378 6.22025 13.1662 5.66372C12.5485 5.06287 11.9452 4.44764 11.3367 3.83758C11.2509 3.75126 11.1726 3.65745 11.0903 3.56709C11.0713 3.57227 11.0517 3.57802 11.0327 3.5832C11.0327 3.66205 11.0327 3.7409 11.0327 3.82032C11.0327 7.4605 11.0327 11.1013 11.0322 14.7414C11.0322 15.3072 10.742 15.7043 10.2423 15.8309C9.62234 15.9874 9.0035 15.5322 8.96665 14.8917C8.96147 14.8059 8.96435 14.7196 8.96435 14.6332C8.96435 11.0287 8.96435 7.42424 8.96435 3.81974C8.96493 3.74262 8.96493 3.66608 8.96493 3.54982Z" fill="#333333"/>
</g>
<defs>
<clipPath id="clip0_234_82">
<rect width="20" height="20" fill="white"/>
</clipPath>
</defs>
</svg>
